<svg width="202" height="119" viewBox="0 0 202 119" fill="none" xmlns="http://www.w3.org/2000/svg">
<g opacity="0.5">
<path fill-rule="evenodd" clip-rule="evenodd" d="M40.2958 46.1569L38.8455 44.865L38.5235 44.5765C37.7064 43.8413 37.2094 43.3657 36.7475 42.8681L36.6458 42.7573C35.001 40.9467 34.2018 39.0879 33.412 35.1875L33.3532 34.8934L33.2941 34.5898C32.4455 30.155 29.802 26.7082 26.388 25.1724C23.0933 23.6902 19.6538 24.26 17.4031 26.8216C15.3089 29.2051 15.0988 32.7725 16.3735 37.0109C17.2915 40.0634 19.0216 43.3669 20.2836 44.9358L20.325 44.9868C20.9144 45.7106 21.1756 47.0751 21.4776 50.2588L21.7526 53.2728L21.7996 53.7643C21.8932 54.7278 21.9849 55.5793 22.088 56.4206C22.3944 58.9216 22.7823 61.1473 23.3125 63.2592C23.4057 63.6303 23.503 63.9963 23.6045 64.3573C23.6642 64.5695 23.5407 64.79 23.3286 64.8497C23.1165 64.9095 22.8962 64.7859 22.8365 64.5737C22.7329 64.2053 22.6337 63.8321 22.5387 63.4537C22.0159 61.3715 21.6302 59.1859 21.3245 56.7471L21.296 56.5177C21.1921 55.6693 21.0997 54.8116 21.0055 53.8422L20.9068 52.7899C20.8339 51.9917 20.7257 50.7883 20.7017 50.5302L20.6671 50.1662C20.3917 47.319 20.1387 46.022 19.707 45.4918C18.375 43.8628 16.5674 40.4265 15.6094 37.241C14.2637 32.766 14.4896 28.9284 16.8039 26.2945C19.297 23.4569 23.1146 22.8245 26.7152 24.4443C30.3703 26.0885 33.181 29.7533 34.0777 34.4393C34.1069 34.5915 34.136 34.74 34.165 34.8851L34.1939 35.029C34.9731 38.8768 35.7313 40.6002 37.3321 42.3248L37.4635 42.4647C37.9182 42.9428 38.4415 43.4336 39.3129 44.2124L40.8284 45.5624L41.1401 45.8429C41.6004 46.2584 42.0308 46.6531 42.469 47.063C42.6299 47.2135 42.6385 47.4661 42.488 47.6271C42.3376 47.7882 42.0851 47.7967 41.9242 47.6462L41.6351 47.377C41.202 46.9753 40.7681 46.5805 40.2958 46.1569Z" fill="#A0AEC0"/>
<path fill-rule="evenodd" clip-rule="evenodd" d="M21.7445 30.2652C21.931 30.1477 22.1773 30.2037 22.2947 30.3903L22.6566 30.9717L23.103 31.6964C23.2222 31.8908 23.347 32.0949 23.4773 32.3087L23.6767 32.6365C24.7748 34.4439 25.9982 36.5002 27.3157 38.7681C31.0797 45.2478 34.8437 52.1254 38.3571 59.1026C40.4032 63.1659 42.3057 67.15 44.0367 71.0218C44.1266 71.2231 44.0365 71.4592 43.8354 71.5492C43.6343 71.6392 43.3983 71.5491 43.3084 71.3478C41.5826 67.4878 39.6854 63.5146 37.6446 59.4618C34.2244 52.6698 30.5654 45.9709 26.9007 39.6432L26.6258 39.1693C25.3908 37.0432 24.2387 35.1037 23.1955 33.3818L22.8615 32.8318C22.5981 32.3992 22.3565 32.0048 22.1379 31.6504L21.6195 30.8156C21.5021 30.6291 21.5581 30.3826 21.7445 30.2652Z" fill="#A0AEC0"/>
<path fill-rule="evenodd" clip-rule="evenodd" d="M48.4713 17.4745C50.6202 13.3285 54.094 11.2727 59.0697 11.7508C63.4558 12.1721 65.9659 14.27 66.7285 17.7508C67.3491 20.584 66.7934 24.2435 65.2974 28.4699L65.2047 28.7294C64.531 30.5953 64.7788 32.3651 65.8432 34.2457L65.8975 34.3409C66.6995 35.732 67.6995 36.8995 69.8748 39.1451L70.8474 40.1486L71.0811 40.3924C72.3774 41.7498 73.2021 42.7108 73.8851 43.7142C74.8027 45.0625 75.3254 46.3354 75.4266 47.6283C75.5567 49.2301 75.281 50.8034 74.6421 52.4241C74.5612 52.6292 74.3295 52.7298 74.1246 52.6489C73.9196 52.568 73.819 52.3362 73.8999 52.1311C74.4963 50.6182 74.7509 49.1653 74.6312 47.6918C74.5421 46.5529 74.0711 45.4058 73.2256 44.1635L73.1481 44.0507C72.483 43.0928 71.6566 42.1437 70.3501 40.783L69.0765 39.4675C66.96 37.2728 65.9763 36.1011 65.1489 34.6391C63.9766 32.5678 63.6954 30.5599 64.4543 28.4581C65.9733 24.2508 66.5435 20.635 65.9491 17.9217C65.2629 14.7892 63.0438 12.9346 58.9935 12.5455C54.3537 12.0996 51.1835 13.9758 49.1796 17.842C47.5489 20.9885 46.7571 25.2769 46.5579 30.6178L46.545 30.9864C46.4985 32.4103 46.4989 33.6255 46.5302 35.5153L46.5519 36.8152C46.5818 38.8626 46.5619 39.6971 46.4469 40.7277L46.4425 40.7669C46.2679 42.3068 45.8738 43.5718 45.1474 44.7974C44.5836 45.7485 43.813 46.6819 42.7797 47.6604L42.682 47.7523C41.5869 48.7791 41.1175 49.9114 41.1546 51.2238C41.1856 52.3202 41.5555 53.5129 42.2775 55.0457L42.3231 55.142C42.4967 55.5067 42.6681 55.8492 42.9164 56.3295L43.5635 57.5728C44.2213 58.8438 44.4877 59.4112 44.7766 60.1734C45.24 61.3958 45.4204 62.4368 45.2773 63.3932L45.2657 63.4669C45.1723 64.0388 44.8042 65.8989 44.7725 66.0714C44.2892 68.698 44.0913 71.0742 44.257 73.9426C44.2697 74.1627 44.1017 74.3514 43.8817 74.3642C43.6618 74.3769 43.4732 74.2088 43.4605 73.9887C43.2943 71.1112 43.4854 68.7138 43.9573 66.0943L44.003 65.847C44.0854 65.4189 44.428 63.6802 44.4881 63.2754C44.6048 62.4955 44.4577 61.6089 44.0624 60.5412L44.0026 60.3832C43.7091 59.6188 43.4184 59.0199 42.6404 57.527L42.238 56.7549C41.9694 56.2361 41.7879 55.8742 41.6027 55.4853C40.8071 53.8143 40.3925 52.5003 40.3571 51.2464C40.3135 49.706 40.8743 48.3531 42.1369 47.1694C43.1675 46.2058 43.921 45.3014 44.4611 44.3901C45.1267 43.2672 45.4873 42.11 45.6497 40.6769L45.6738 40.4532C45.7652 39.5544 45.7812 38.7285 45.755 36.8922L45.7251 35.0559C45.699 33.2629 45.7053 32.0697 45.7606 30.588C45.9638 25.1395 46.7745 20.7484 48.4713 17.4745Z" fill="#A0AEC0"/>
<path fill-rule="evenodd" clip-rule="evenodd" d="M55.1279 15.681C55.3296 15.7479 55.4422 15.9603 55.3879 16.163L55.3259 16.3583L55.2774 16.5141C55.2548 16.5876 55.2308 16.6666 55.2054 16.7513L55.1662 16.8824C54.9935 17.464 54.8008 18.1538 54.5932 18.9489L54.5122 19.2615C53.9452 21.4665 53.3796 24.0222 52.8499 26.9082C51.5203 34.1528 50.6295 42.2846 50.3808 51.1829C50.067 62.4124 50.8022 74.1677 52.7898 86.3286C52.8254 86.5462 52.6779 86.7514 52.4605 86.7869C52.243 86.8225 52.038 86.675 52.0024 86.4574C50.0064 74.2453 49.268 62.4395 49.5832 51.1606C49.8331 42.2201 50.7284 34.0478 52.0652 26.764L52.1416 26.3513C52.6781 23.478 53.2495 20.9365 53.8212 18.7471L53.887 18.4968C54.0502 17.8798 54.2038 17.3287 54.3454 16.8449L54.4014 16.655C54.4424 16.517 54.4803 16.3915 54.5151 16.2786L54.6006 16.0059L54.6238 15.9344C54.6931 15.7251 54.9188 15.6117 55.1279 15.681Z" fill="#A0AEC0"/>
<path fill-rule="evenodd" clip-rule="evenodd" d="M15.1917 78.7666L13.5881 76.4607C12.2105 74.493 11.4711 73.6183 10.9507 73.3994L10.9329 73.3921C9.28011 72.738 6.53965 70.965 4.51873 69.0281C1.6689 66.2967 0.230051 63.384 0.821715 60.487C1.45985 57.3624 3.98859 55.3134 7.29563 55.0167C10.6467 54.7161 14.2233 56.2494 16.8357 59.3237C18.4201 61.1883 19.5134 62.2286 20.5861 62.8941C21.4486 63.4292 22.3118 63.7466 23.7549 64.0932L23.9486 64.1383C24.5014 64.2625 26.9847 64.8109 28.0089 65.0618C30.078 65.5685 32.1988 66.1788 34.651 67.001C39.1481 68.5156 43.2736 72.0125 47.0931 77.1639C50.1424 81.2764 52.86 86.2346 55.4465 92.0314C55.5364 92.2327 55.4461 92.4688 55.2449 92.5587C55.0437 92.6485 54.8078 92.5582 54.718 92.3569C52.1532 86.6087 49.4617 81.6983 46.4524 77.6396C42.7214 72.6076 38.7157 69.2123 34.397 67.7578C32.1017 66.9882 30.1015 66.4066 28.161 65.9218L27.7462 65.8194C26.592 65.5396 23.8539 64.9372 23.6639 64.8922L23.4701 64.8456C22.0086 64.4895 21.0922 64.1474 20.1656 63.5726C19.0618 62.8877 17.9672 61.8631 16.4509 60.1017L16.2278 59.8408C13.7802 56.9604 10.4549 55.5349 7.36688 55.8119C4.39634 56.0783 2.16764 57.8842 1.60343 60.6468C1.07827 63.2182 2.3982 65.8902 5.07065 68.4516C6.9927 70.2937 9.60267 71.99 11.1659 72.6255L11.2263 72.6497C11.9401 72.9321 12.6758 73.7789 14.0944 75.7929L16.0204 78.5588L16.3176 78.9806C17.1794 80.1929 17.9632 81.2395 18.7682 82.2362C21.4191 85.5183 24.086 87.9717 27.029 89.582C28.8479 90.5772 30.5516 90.9865 32.2488 90.9308C33.5013 90.8896 34.6053 90.6317 36.1527 90.094L36.409 90.0038C36.6245 89.9269 37.2215 89.7117 37.3827 89.6548L37.5322 89.6024C37.8469 89.4927 38.1056 89.4084 38.3521 89.3362C39.0702 89.1259 39.6563 89.0316 40.2051 89.0618C41.5065 89.1333 42.5233 89.9207 43.3954 91.6131L43.4255 91.6722L43.4494 91.7144C43.493 91.7902 43.5346 91.8556 43.5791 91.9177L43.6062 91.9547C43.7384 92.131 43.7027 92.3812 43.5264 92.5135C43.3501 92.6458 43.1001 92.61 42.9679 92.4337C42.8929 92.3337 42.8265 92.2317 42.7592 92.115L42.7255 92.0554L42.6511 91.9113C41.9106 90.5012 41.1356 89.9124 40.1614 89.8589C39.7174 89.8345 39.2149 89.9154 38.5762 90.1024L38.4677 90.1347C38.2481 90.2014 38.0103 90.2805 37.7216 90.3818L36.6329 90.7715C34.901 91.3854 33.6841 91.6824 32.275 91.7287C30.4347 91.7891 28.5898 91.3459 26.6462 90.2824C23.5982 88.6147 20.8586 86.0944 18.1477 82.738C17.4022 81.815 16.6761 80.8518 15.8929 79.7592L15.4708 79.1648C15.3873 79.0462 15.2928 78.9112 15.1917 78.7666Z" fill="#A0AEC0"/>
<path fill-rule="evenodd" clip-rule="evenodd" d="M5.42054 59.8901C5.50765 59.6876 5.74233 59.5941 5.9447 59.6813L6.09024 59.7448C6.17934 59.7839 6.28042 59.8286 6.39316 59.8788L6.77526 60.0503C7.1394 60.2148 7.54398 60.4004 7.98645 60.6066L8.09785 60.6585C9.80637 61.4567 11.7097 62.3886 13.7592 63.4457C19.6151 66.4662 25.4712 69.8856 30.9389 73.6366C39.5029 79.5119 46.3007 85.6478 50.6756 91.9396C50.8015 92.1205 50.7569 92.3693 50.576 92.4952C50.3951 92.6211 50.1465 92.5765 50.0207 92.3955C45.7098 86.1959 38.979 80.1205 30.4877 74.295C25.0501 70.5646 19.2219 67.1616 13.3937 64.1553L12.9876 63.9465C11.2367 63.0491 9.59786 62.2459 8.10277 61.5425L7.76031 61.3819C7.20305 61.1216 6.7046 60.8934 6.26998 60.6982L5.86148 60.5162L5.62925 60.4146C5.42688 60.3274 5.33344 60.0926 5.42054 59.8901Z" fill="#A0AEC0"/>
<path fill-rule="evenodd" clip-rule="evenodd" d="M81.5051 80.0193C81.6185 79.8679 81.8273 79.8145 82.0025 79.9021C82.1996 80.0007 82.2794 80.2404 82.1809 80.4376C82.1625 80.4745 82.1409 80.5061 82.1166 80.5348L82.1045 80.5488L82.0924 80.5614L82.0879 80.568L82.072 80.5874C81.3248 81.448 80.5439 82.1592 79.7263 82.735C78.3963 83.672 76.9957 84.2382 75.4534 84.5322L75.333 84.5547C74.2973 84.7444 73.4493 84.7952 71.8161 84.8147L71.3837 84.8197C69.562 84.8446 68.8378 84.9357 68.144 85.2965C67.2553 85.7588 66.7344 86.6872 66.5423 88.3936C66.5411 88.4044 66.5395 88.4151 66.5374 88.4258C66.2562 89.8592 65.9199 91.1546 65.5266 92.3217C65.4562 92.5306 65.2299 92.6429 65.0211 92.5724C64.8123 92.502 64.7001 92.2755 64.7705 92.0666C65.1363 90.9813 65.4524 89.7773 65.7198 88.4463L65.7513 88.2877L65.7589 88.2234C65.984 86.3494 66.6216 85.2114 67.7283 84.6135L67.776 84.5882L67.8463 84.5523C68.6655 84.1434 69.467 84.0474 71.3657 84.0215L72.0709 84.0129C73.5467 83.9906 74.3282 83.934 75.304 83.748C76.739 83.4744 78.0338 82.951 79.267 82.0823C79.9991 81.5665 80.703 80.9319 81.3814 80.1647L81.4529 80.0828L81.4607 80.0721L81.4784 80.0499C81.4873 80.0394 81.494 80.032 81.502 80.0237L81.5051 80.0193Z" fill="#A0AEC0"/>
<path fill-rule="evenodd" clip-rule="evenodd" d="M88.3995 37.8619C91.8301 36.9239 95.1314 38.0342 96.9366 40.9296C98.6106 43.6146 98.2546 47.0777 96.4138 50.8896C95.1071 53.5953 93.0155 56.4062 91.5986 57.684C91.3208 57.9335 91.0282 58.5319 90.7071 59.5146L90.6852 59.5822C90.3711 60.5569 89.0613 65.685 88.697 66.9571C88.6364 67.1691 88.4155 67.2916 88.2036 67.2309C87.9918 67.1702 87.8693 66.9492 87.93 66.7372L87.9907 66.5214C88.4172 64.9822 89.6188 60.2899 89.9258 59.3372L89.9742 59.1893C90.3196 58.1469 90.6457 57.484 91.0376 57.1157L91.1607 57.0027C92.4989 55.7548 94.4629 53.0943 95.6954 50.5422C97.4294 46.9515 97.7579 43.7553 96.2596 41.3522C94.6499 38.7703 91.7146 37.7831 88.6098 38.632C85.418 39.5047 82.6196 42.1486 81.2173 45.9129L81.0899 46.2608C79.7037 50.0302 78.6874 51.5939 76.7325 53.0749C76.5569 53.2079 76.3067 53.1733 76.1737 52.9976C76.0407 52.8218 76.0753 52.5715 76.2509 52.4384L76.3611 52.354C78.0883 51.0161 79.013 49.5764 80.302 46.0911L80.4253 45.7547C81.9 41.6904 84.9207 38.813 88.3995 37.8619Z" fill="#A0AEC0"/>
<path fill-rule="evenodd" clip-rule="evenodd" d="M68.2486 57.9179C68.4255 57.7865 68.6754 57.8235 68.8067 58.0005C68.938 58.1775 68.9011 58.4275 68.7242 58.5589L68.426 58.782C67.738 59.3001 66.9765 59.8972 65.8646 60.7844C62.3332 63.6366 59.697 68.067 57.8338 73.8502C56.2928 78.6336 55.3286 84.1612 54.7881 90.419C54.7691 90.6386 54.5758 90.8013 54.3563 90.7823C54.1368 90.7633 53.9742 90.5699 53.9932 90.3503C54.5384 84.0374 55.5124 78.4538 57.0745 73.6053C58.9813 67.6865 61.6948 63.1264 65.3653 60.1617L65.9824 59.6706C66.9264 58.9216 67.6013 58.3987 68.2486 57.9179Z" fill="#A0AEC0"/>
<path fill-rule="evenodd" clip-rule="evenodd" d="M75.004 60.9373C75.1375 60.7619 75.3878 60.7279 75.5631 60.8615C75.7384 60.995 75.7724 61.2454 75.6389 61.4209C69.8841 68.986 65.2868 76.3923 62.2704 83.4107C62.1834 83.6132 61.9487 83.7068 61.7463 83.6197C61.5439 83.5326 61.4504 83.2978 61.5374 83.0953C64.583 76.0091 69.213 68.5502 75.004 60.9373Z" fill="#A0AEC0"/>
<path fill-rule="evenodd" clip-rule="evenodd" d="M91.6285 42.063C91.7878 41.9108 92.0403 41.9166 92.1925 42.076C92.3388 42.2293 92.3391 42.4688 92.1972 42.6223L91.8586 42.9517C91.7604 43.0478 91.6543 43.152 91.5407 43.2644L91.3032 43.4998C90.5956 44.2037 89.7914 45.0221 88.9057 45.9461C86.3743 48.5868 83.6983 51.5431 80.9987 54.7438C80.8566 54.9123 80.605 54.9336 80.4366 54.7914C80.2682 54.6492 80.2469 54.3974 80.389 54.2289C83.0287 51.0992 85.6458 48.2023 88.1288 45.6035L88.3298 45.3934C89.1458 44.5422 89.8933 43.7798 90.5607 43.1131L90.9222 42.7536C91.0589 42.6182 91.1853 42.4938 91.3011 42.3807L91.5691 42.12C91.5983 42.0919 91.6182 42.0728 91.6285 42.063Z" fill="#A0AEC0"/>
<path fill-rule="evenodd" clip-rule="evenodd" d="M58.0211 91.8483C58.2414 91.8483 58.42 92.027 58.42 92.2474C58.42 92.46 58.2539 92.6338 58.0445 92.6459L58.0211 92.6466H39.8961C38.3611 92.6466 37.2254 94.0159 37.5232 95.4692L37.5327 95.5133L42.6125 118.226C42.6606 118.441 42.5253 118.654 42.3103 118.703C42.103 118.749 41.8972 118.625 41.8397 118.423L41.8339 118.4L36.7542 95.688C36.3154 93.7352 37.8083 91.8856 39.8345 91.8488L39.8961 91.8483H58.0211Z" fill="#A0AEC0"/>
<path fill-rule="evenodd" clip-rule="evenodd" d="M108.447 86.1134V102.333H103.593V91.7682C102.13 93.2851 100.747 94.4959 99.4573 95.4139V102.28H94.6036V97.7823C93.0743 98.1416 91.7179 98.0618 90.5477 97.6759V102.32H85.694V93.5645C85.5344 93.2451 85.428 92.9258 85.3482 92.6331L82.5158 82.441H56.9839V118.552H110.774V83.2793C110.056 84.1708 109.284 85.1155 108.447 86.1134ZM63.686 102.333H58.8456V85.5146H63.6993V102.333H63.686ZM72.5956 102.293H67.7419V85.488H72.5956V102.293ZM81.5849 102.333H76.7312V85.5146H81.5849V102.333Z" fill="#EDF2F7"/>
<path fill-rule="evenodd" clip-rule="evenodd" d="M72.0371 89.0806C72.2574 89.0806 72.436 89.2593 72.436 89.4797C72.436 89.6923 72.2699 89.8661 72.0605 89.8782L72.0371 89.8789H68.4334C68.213 89.8789 68.0344 89.7002 68.0344 89.4797C68.0344 89.2672 68.2005 89.0934 68.4099 89.0812L68.4334 89.0806H72.0371Z" fill="#EDF2F7"/>
<path fill-rule="evenodd" clip-rule="evenodd" d="M72.0371 90.9434C72.2574 90.9434 72.436 91.1221 72.436 91.3425C72.436 91.5551 72.2699 91.7289 72.0605 91.741L72.0371 91.7417H68.4334C68.213 91.7417 68.0344 91.563 68.0344 91.3425C68.0344 91.1299 68.2005 90.9562 68.4099 90.944L68.4334 90.9434H72.0371Z" fill="#EDF2F7"/>
<path fill-rule="evenodd" clip-rule="evenodd" d="M72.0371 92.7928C72.2574 92.7928 72.436 92.9716 72.436 93.192C72.436 93.4046 72.2699 93.5784 72.0605 93.5905L72.0371 93.5912H68.4334C68.213 93.5912 68.0344 93.4125 68.0344 93.192C68.0344 92.9794 68.2005 92.8057 68.4099 92.7935L68.4334 92.7928H72.0371Z" fill="#EDF2F7"/>
<path fill-rule="evenodd" clip-rule="evenodd" d="M80.973 96.8245C81.1933 96.8245 81.3719 97.0032 81.3719 97.2236C81.3719 97.4362 81.2059 97.61 80.9964 97.6221L80.973 97.6228H77.3826C77.1623 97.6228 76.9836 97.4441 76.9836 97.2236C76.9836 97.011 77.1497 96.8373 77.3591 96.8251L77.3826 96.8245H80.973Z" fill="#EDF2F7"/>
<path fill-rule="evenodd" clip-rule="evenodd" d="M80.973 87.271C81.1933 87.271 81.3719 87.4497 81.3719 87.6702C81.3719 87.8827 81.2059 88.0565 80.9964 88.0687L80.973 88.0693H77.3826C77.1623 88.0693 76.9836 87.8906 76.9836 87.6702C76.9836 87.4576 77.1497 87.2838 77.3591 87.2717L77.3826 87.271H80.973Z" fill="#EDF2F7"/>
<path fill-rule="evenodd" clip-rule="evenodd" d="M80.973 98.6737C81.1933 98.6737 81.3719 98.8524 81.3719 99.0729C81.3719 99.2855 81.2059 99.4592 80.9964 99.4714L80.973 99.472H77.3826C77.1623 99.472 76.9836 99.2933 76.9836 99.0729C76.9836 98.8603 77.1497 98.6865 77.3591 98.6744L77.3826 98.6737H80.973Z" fill="#EDF2F7"/>
<path fill-rule="evenodd" clip-rule="evenodd" d="M80.973 100.523C81.1933 100.523 81.3719 100.702 81.3719 100.922C81.3719 101.135 81.2059 101.309 80.9964 101.321L80.973 101.322H77.3826C77.1623 101.322 76.9836 101.143 76.9836 100.922C76.9836 100.71 77.1497 100.536 77.3591 100.524L77.3826 100.523H80.973Z" fill="#EDF2F7"/>
<path fill-rule="evenodd" clip-rule="evenodd" d="M107.835 96.8245C108.055 96.8245 108.234 97.0032 108.234 97.2236C108.234 97.4362 108.068 97.61 107.858 97.6221L107.835 97.6228H104.244C104.024 97.6228 103.845 97.4441 103.845 97.2236C103.845 97.011 104.012 96.8373 104.221 96.8251L104.244 96.8245H107.835Z" fill="#EDF2F7"/>
<path fill-rule="evenodd" clip-rule="evenodd" d="M107.835 98.6737C108.055 98.6737 108.234 98.8524 108.234 99.0729C108.234 99.2855 108.068 99.4592 107.858 99.4714L107.835 99.472H104.244C104.024 99.472 103.845 99.2933 103.845 99.0729C103.845 98.8603 104.012 98.6865 104.221 98.6744L104.244 98.6737H107.835Z" fill="#EDF2F7"/>
<path fill-rule="evenodd" clip-rule="evenodd" d="M107.835 100.523C108.055 100.523 108.234 100.702 108.234 100.922C108.234 101.135 108.068 101.309 107.858 101.321L107.835 101.322H104.244C104.024 101.322 103.845 101.143 103.845 100.922C103.845 100.71 104.012 100.536 104.221 100.524L104.244 100.523H107.835Z" fill="#EDF2F7"/>
<path fill-rule="evenodd" clip-rule="evenodd" d="M63.0742 96.8245C63.2945 96.8245 63.4731 97.0032 63.4731 97.2236C63.4731 97.4362 63.3071 97.61 63.0976 97.6221L63.0742 97.6228H59.4705C59.2501 97.6228 59.0715 97.4441 59.0715 97.2236C59.0715 97.011 59.2376 96.8373 59.447 96.8251L59.4705 96.8245H63.0742Z" fill="#EDF2F7"/>
<path fill-rule="evenodd" clip-rule="evenodd" d="M63.0742 87.271C63.2945 87.271 63.4731 87.4497 63.4731 87.6702C63.4731 87.8827 63.3071 88.0565 63.0976 88.0687L63.0742 88.0693H59.4705C59.2501 88.0693 59.0715 87.8906 59.0715 87.6702C59.0715 87.4576 59.2376 87.2838 59.447 87.2717L59.4705 87.271H63.0742Z" fill="#EDF2F7"/>
<path fill-rule="evenodd" clip-rule="evenodd" d="M63.0742 98.6737C63.2945 98.6737 63.4731 98.8524 63.4731 99.0729C63.4731 99.2855 63.3071 99.4592 63.0976 99.4714L63.0742 99.472H59.4705C59.2501 99.472 59.0715 99.2933 59.0715 99.0729C59.0715 98.8603 59.2376 98.6865 59.447 98.6744L59.4705 98.6737H63.0742Z" fill="#EDF2F7"/>
<path fill-rule="evenodd" clip-rule="evenodd" d="M63.0742 100.523C63.2945 100.523 63.4731 100.702 63.4731 100.922C63.4731 101.135 63.3071 101.309 63.0976 101.321L63.0742 101.322H59.4705C59.2501 101.322 59.0715 101.143 59.0715 100.922C59.0715 100.71 59.2376 100.536 59.447 100.524L59.4705 100.523H63.0742Z" fill="#EDF2F7"/>
<path fill-rule="evenodd" clip-rule="evenodd" d="M89.9624 96.8245C90.1827 96.8245 90.3613 97.0032 90.3613 97.2236C90.3613 97.4362 90.1952 97.61 89.9858 97.6221L89.9624 97.6228H86.3587C86.1383 97.6228 85.9597 97.4441 85.9597 97.2236C85.9597 97.011 86.1258 96.8373 86.3352 96.8251L86.3587 96.8245H89.9624Z" fill="#EDF2F7"/>
<path fill-rule="evenodd" clip-rule="evenodd" d="M89.9624 98.6737C90.1827 98.6737 90.3613 98.8524 90.3613 99.0729C90.3613 99.2855 90.1952 99.4592 89.9858 99.4714L89.9624 99.472H86.3587C86.1383 99.472 85.9597 99.2933 85.9597 99.0729C85.9597 98.8603 86.1258 98.6865 86.3352 98.6744L86.3587 98.6737H89.9624Z" fill="#EDF2F7"/>
<path fill-rule="evenodd" clip-rule="evenodd" d="M89.9624 100.523C90.1827 100.523 90.3613 100.702 90.3613 100.922C90.3613 101.135 90.1952 101.309 89.9858 101.321L89.9624 101.322H86.3587C86.1383 101.322 85.9597 101.143 85.9597 100.922C85.9597 100.71 86.1258 100.536 86.3352 100.524L86.3587 100.523H89.9624Z" fill="#EDF2F7"/>
<rect x="72.5977" y="102.996" width="1.57005" height="4.85372" transform="rotate(90 72.5977 102.996)" fill="#A0AEC0"/>
<rect x="81.5896" y="103.041" width="1.57004" height="4.85372" transform="rotate(90 81.5896 103.041)" fill="#A0AEC0"/>
<rect x="108.451" y="103.041" width="1.57008" height="4.85372" transform="rotate(90 108.451 103.041)" fill="#A0AEC0"/>
<rect x="63.6892" y="103.043" width="1.57006" height="4.85372" transform="rotate(90 63.6892 103.043)" fill="#A0AEC0"/>
<rect x="90.5676" y="103.039" width="1.57008" height="4.85373" transform="rotate(90 90.5676 103.039)" fill="#A0AEC0"/>
<rect x="99.4761" y="103.006" width="1.57003" height="4.85373" transform="rotate(90 99.4761 103.006)" fill="#A0AEC0"/>
<path fill-rule="evenodd" clip-rule="evenodd" d="M70.0823 110.21C68.9219 110.21 67.9812 111.151 67.9812 112.312C67.9812 113.473 68.9219 114.414 70.0823 114.414C71.2426 114.414 72.1833 113.473 72.1833 112.312C72.1833 111.151 71.2426 110.21 70.0823 110.21ZM70.0823 111.008C70.802 111.008 71.3855 111.592 71.3855 112.312C71.3855 113.032 70.802 113.616 70.0823 113.616C69.3625 113.616 68.7791 113.032 68.7791 112.312C68.7791 111.592 69.3625 111.008 70.0823 111.008Z" fill="#A0AEC0"/>
<path fill-rule="evenodd" clip-rule="evenodd" d="M79.0715 110.25C77.9111 110.25 76.9705 111.191 76.9705 112.352C76.9705 113.513 77.9111 114.454 79.0715 114.454C80.2319 114.454 81.1726 113.513 81.1726 112.352C81.1726 111.191 80.2319 110.25 79.0715 110.25ZM79.0715 111.048C79.7912 111.048 80.3747 111.632 80.3747 112.352C80.3747 113.072 79.7912 113.656 79.0715 113.656C78.3518 113.656 77.7683 113.072 77.7683 112.352C77.7683 111.632 78.3518 111.048 79.0715 111.048Z" fill="#A0AEC0"/>
<path fill-rule="evenodd" clip-rule="evenodd" d="M105.933 110.25C104.773 110.25 103.832 111.191 103.832 112.352C103.832 113.513 104.773 114.454 105.933 114.454C107.094 114.454 108.034 113.513 108.034 112.352C108.034 111.191 107.094 110.25 105.933 110.25ZM105.933 111.048C106.653 111.048 107.237 111.632 107.237 112.352C107.237 113.072 106.653 113.656 105.933 113.656C105.214 113.656 104.63 113.072 104.63 112.352C104.63 111.632 105.214 111.048 105.933 111.048Z" fill="#A0AEC0"/>
<path fill-rule="evenodd" clip-rule="evenodd" d="M61.1726 110.25C60.0122 110.25 59.0715 111.191 59.0715 112.352C59.0715 113.513 60.0122 114.454 61.1726 114.454C62.333 114.454 63.2737 113.513 63.2737 112.352C63.2737 111.191 62.333 110.25 61.1726 110.25ZM61.1726 111.048C61.8923 111.048 62.4758 111.632 62.4758 112.352C62.4758 113.072 61.8923 113.656 61.1726 113.656C60.4529 113.656 59.8694 113.072 59.8694 112.352C59.8694 111.632 60.4529 111.048 61.1726 111.048Z" fill="#A0AEC0"/>
<path fill-rule="evenodd" clip-rule="evenodd" d="M88.0476 110.25C86.8872 110.25 85.9465 111.191 85.9465 112.352C85.9465 113.513 86.8872 114.454 88.0476 114.454C89.208 114.454 90.1487 113.513 90.1487 112.352C90.1487 111.191 89.208 110.25 88.0476 110.25ZM88.0476 111.048C88.7673 111.048 89.3508 111.632 89.3508 112.352C89.3508 113.072 88.7673 113.656 88.0476 113.656C87.3279 113.656 86.7444 113.072 86.7444 112.352C86.7444 111.632 87.3279 111.048 88.0476 111.048Z" fill="#A0AEC0"/>
<path fill-rule="evenodd" clip-rule="evenodd" d="M96.9573 110.21C95.7969 110.21 94.8562 111.151 94.8562 112.312C94.8562 113.473 95.7969 114.414 96.9573 114.414C98.1176 114.414 99.0583 113.473 99.0583 112.312C99.0583 111.151 98.1176 110.21 96.9573 110.21ZM96.9573 111.008C97.677 111.008 98.2605 111.592 98.2605 112.312C98.2605 113.032 97.677 113.616 96.9573 113.616C96.2375 113.616 95.6541 113.032 95.6541 112.312C95.6541 111.592 96.2375 111.008 96.9573 111.008Z" fill="#A0AEC0"/>
<path fill-rule="evenodd" clip-rule="evenodd" d="M189.358 40.6451C189.811 40.6515 190.125 40.9415 190.196 41.4188C190.341 42.2596 189.057 44.0261 186.423 47.1214C185.567 48.1244 184.441 49.0682 183.112 49.9506C182.02 50.6747 180.854 51.3175 179.687 51.8726C179.279 52.0668 178.899 52.2363 178.558 52.3802L178.366 52.4602L178.124 52.5573C177.918 52.6358 177.687 52.5326 177.609 52.3266C177.533 52.128 177.626 51.9064 177.817 51.8204L177.943 51.7703C178.031 51.7352 178.133 51.6932 178.248 51.6446C178.579 51.5052 178.947 51.3405 179.344 51.1516C180.479 50.6117 181.614 49.9866 182.671 49.2853C183.943 48.4408 185.014 47.5431 185.816 46.6033L186.149 46.2092C188.198 43.775 189.457 42.0209 189.41 41.5597L189.4 41.4841C189.392 41.4404 189.386 41.4439 189.347 41.4434C189.21 41.4415 188.971 41.5252 188.663 41.6915C188.469 41.7963 188.227 41.7239 188.122 41.53C188.018 41.336 188.09 41.0938 188.284 40.9891C188.702 40.7633 189.052 40.6408 189.358 40.6451Z" fill="#A0AEC0"/>
<path fill-rule="evenodd" clip-rule="evenodd" d="M187.028 39.6975L187.081 39.6639L187.153 39.6205C188.228 38.9898 189.156 39.2593 189.165 40.4622C189.165 41.4324 184.79 48.2762 183.178 49.5815C181.677 50.7888 179.632 51.9118 177.028 52.8754L176.835 52.9459L171.714 84.8416L171.707 84.8924C171.432 86.8669 169.647 89.3344 167.76 90.2767L167.725 90.2937L167.683 90.3208C165.803 91.515 163.477 91.7736 160.769 90.9568L160.678 90.9289C157.601 89.9765 154.083 87.6629 150.125 83.8686L149.572 83.3356C142.829 76.8348 138.187 72.2941 135.271 69.3738L134.775 68.8761C133.9 67.9963 133.263 67.3424 132.825 66.8806L132.614 66.6565C132.39 66.4168 132.279 66.2908 132.239 66.2378C132.066 66.0113 132.18 65.6848 132.449 65.6108L132.473 65.6051L153.151 61.2009C153.271 61.1753 153.396 61.2067 153.49 61.2851L153.529 61.321L156.095 63.7652L157.28 64.8908C158.467 66.0168 159.654 67.1407 160.815 68.2365L161.482 68.8662L162.202 67.0369C166.334 56.5453 169.621 48.5116 170.39 47.2663L170.414 47.2282C170.966 46.3892 172.066 45.5979 173.564 44.8416C174.304 44.4681 175.094 44.1275 175.884 43.826L176.065 43.7575C176.273 43.6798 176.468 43.6096 176.648 43.5474L176.825 43.487L176.894 43.4638L176.92 43.4478C177.265 43.2308 177.785 42.8583 178.435 42.3691L178.722 42.1519L178.813 42.0821C179.275 41.7297 179.759 41.3518 180.237 40.9739L180.637 40.6566L180.877 40.4644C181.573 39.9321 182.139 39.616 182.586 39.5061C183.095 39.3813 183.514 39.5216 183.71 39.9202C183.724 39.9479 183.736 39.9767 183.747 40.0064L183.762 40.0521L183.799 40.0289C184.073 39.8614 184.379 39.7419 184.702 39.671L184.763 39.6582C185.359 39.5393 185.955 39.5977 186.235 39.8416C186.331 39.9252 186.389 40.0224 186.418 40.1312L186.423 40.156L186.435 40.1463C186.634 39.9734 186.833 39.8228 187.028 39.6975ZM188.367 40.4642L188.366 40.4329C188.361 40.193 188.31 40.111 188.239 40.0922C188.105 40.0572 187.839 40.1331 187.502 40.3422C186.66 40.8648 185.684 41.9974 184.943 43.4026C184.913 43.4603 184.87 43.5075 184.82 43.5427L184.807 43.5516L184.764 43.6267C184.649 43.8288 184.518 44.0378 184.372 44.2532C184.081 44.6806 183.735 45.1281 183.345 45.5885C182.923 46.0857 182.473 46.5722 182.022 47.0285L181.906 47.1455C181.811 47.2405 181.721 47.3294 181.636 47.4116L181.508 47.5346L181.418 47.6202C181.256 47.7702 181.004 47.7609 180.854 47.5993C180.704 47.4378 180.713 47.1852 180.875 47.0352L180.981 46.9342L181.13 46.7901C181.231 46.6916 181.34 46.5837 181.454 46.4674C181.892 46.0245 182.329 45.5525 182.737 45.072C183.11 44.6319 183.439 44.2063 183.712 43.8045C183.847 43.6059 183.967 43.4146 184.07 43.2336L184.207 42.9927C184.534 42.4233 185.201 41.2779 185.342 41.0141L185.392 40.9194C185.495 40.7211 185.565 40.5669 185.604 40.4516L185.614 40.4207L185.605 40.4188C185.585 40.415 185.563 40.4116 185.54 40.4088L185.505 40.4048C185.334 40.3881 185.128 40.3994 184.919 40.441C184.434 40.5379 184.01 40.7763 183.736 41.1434L183.726 41.1567L183.712 41.1874C183.658 41.3017 183.596 41.4187 183.527 41.5383L183.489 41.6029L183.474 41.6326C183.387 41.8003 183.285 41.9655 183.172 42.1229L183.14 42.1657C182.201 43.4148 180.164 45.4785 179.671 45.6546C179.258 45.8024 178.949 45.2735 179.266 44.9854L179.289 44.9662L179.452 44.8281L179.557 44.7376C179.665 44.644 179.782 44.5415 179.905 44.4311C180.373 44.0104 180.841 43.5617 181.277 43.1049C181.683 42.6803 182.039 42.2699 182.334 41.8828C182.495 41.6701 182.636 41.4669 182.755 41.2748L182.777 41.2387L182.78 41.2327C182.978 40.8357 183.065 40.4521 183.001 40.2875L182.992 40.2668L182.989 40.266C182.954 40.2543 182.884 40.2549 182.777 40.2813C182.456 40.36 181.978 40.6271 181.37 41.0924L180.941 41.4345C180.874 41.4878 180.804 41.5431 180.732 41.6002L180.37 41.8852C180.069 42.122 179.767 42.3564 179.473 42.5822L179.205 42.7871L178.91 43.0101C178.201 43.544 177.641 43.9428 177.272 44.1688C177.245 44.1855 177.216 44.1988 177.185 44.2085L177.115 44.2316C177.068 44.2474 177.014 44.2655 176.955 44.2859L176.909 44.3017C176.686 44.379 176.437 44.4693 176.169 44.5718C175.402 44.8642 174.637 45.1943 173.924 45.5542C172.541 46.2522 171.535 46.9756 171.082 47.6651C170.357 48.7799 166.55 58.13 162.01 69.7071C161.906 69.9701 161.57 70.0456 161.365 69.8519L160.295 68.8432C158.857 67.4865 157.379 66.0862 155.912 64.6922L153.111 62.0255L133.318 66.241L133.613 66.5504C134.02 66.9754 134.568 67.535 135.276 68.2481L135.743 68.7173C138.679 71.6603 143.413 76.2903 150.341 82.9687L150.559 83.1781C154.483 86.9614 157.94 89.2457 160.913 90.1661C163.472 90.9581 165.605 90.7195 167.312 89.6106C167.326 89.6014 167.341 89.5931 167.356 89.5858C169.023 88.782 170.673 86.5155 170.916 84.788L170.925 84.7195L176.085 52.5866C176.108 52.4426 176.208 52.3226 176.345 52.2738C179.067 51.3062 181.171 50.1712 182.677 48.96C183.403 48.3727 184.695 46.6564 186.065 44.5264L186.164 44.3717C186.747 43.4605 187.292 42.5517 187.703 41.8126L187.749 41.728C187.953 41.3583 188.115 41.0447 188.224 40.8066L188.258 40.7322C188.295 40.6489 188.323 40.5784 188.343 40.5222L188.362 40.466C188.365 40.4593 188.366 40.4572 188.367 40.461L188.367 40.4642Z" fill="#A0AEC0"/>
<path fill-rule="evenodd" clip-rule="evenodd" d="M161.827 69.2038C162.01 69.3112 162.076 69.542 161.981 69.7288L161.903 69.866C161.884 69.8985 161.865 69.9341 161.843 69.9726L161.774 70.0999C161.702 70.2314 161.626 70.3755 161.545 70.5312L161.505 70.61C161.153 71.2951 160.802 72.0493 160.474 72.8493C159.802 74.4879 159.318 76.0986 159.104 77.5974C158.82 79.5831 159.028 81.2472 159.809 82.4954C159.926 82.6823 159.869 82.9286 159.682 83.0456C159.496 83.1625 159.249 83.1059 159.132 82.919C158.236 81.487 158.005 79.6402 158.314 77.4842C158.539 75.9121 159.04 74.241 159.735 72.5463C160.073 71.7241 160.434 70.9496 160.795 70.2454L160.878 70.0848C160.96 69.9281 161.037 69.7833 161.109 69.6513L161.226 69.4408L161.281 69.346C161.392 69.1559 161.637 69.0922 161.827 69.2038Z" fill="#A0AEC0"/>
<path fill-rule="evenodd" clip-rule="evenodd" d="M62.4276 50.8357C62.7285 50.7873 63.0865 50.8607 63.5125 51.0278C63.7176 51.1083 63.8187 51.3399 63.7382 51.5452C63.6578 51.7504 63.4263 51.8515 63.2212 51.7711C62.9311 51.6572 62.7043 51.6081 62.5731 51.6215L62.5541 51.6239C62.5047 51.6318 62.5067 51.6295 62.502 51.739C62.4783 52.2054 64.1434 54.0239 66.6436 56.3493C67.4908 57.1364 68.5666 57.8616 69.8179 58.522C70.9849 59.138 72.2382 59.6642 73.4917 60.1003C73.894 60.2403 74.2698 60.3615 74.6108 60.4641L74.7029 60.4916C74.7938 60.5186 74.8774 60.5428 74.953 60.5641L75.1553 60.6195C75.3686 60.6746 75.497 60.8922 75.442 61.1057C75.3889 61.3116 75.1848 61.4383 74.9789 61.3978L74.9218 61.3835L74.8278 61.358C74.7261 61.3299 74.6084 61.2963 74.4762 61.2571C74.0997 61.1454 73.6807 61.0112 73.2297 60.8543C71.9408 60.4059 70.6516 59.8646 69.4456 59.2281C68.1369 58.5374 67.0046 57.7742 66.1006 56.9342L65.8441 56.6949C63.119 54.1454 61.6629 52.529 61.705 51.7014C61.7257 51.2254 61.9945 50.9053 62.4276 50.8357Z" fill="#A0AEC0"/>
<path fill-rule="evenodd" clip-rule="evenodd" d="M76.3039 61.6326L76.2528 61.6204C73.4588 60.9423 71.2264 60.0409 69.6278 59.0136C67.871 57.8872 62.7468 51.5881 62.6511 50.6299C62.522 49.4121 63.4578 49.0477 64.6324 49.6013C64.8397 49.699 65.0536 49.8217 65.2708 49.9668L65.3193 49.9995L65.3235 49.9735C65.3403 49.8824 65.3793 49.7969 65.4449 49.7175L65.4654 49.6939C65.713 49.4214 66.2993 49.2953 66.9036 49.3451C67.2425 49.373 67.5693 49.4535 67.8683 49.5884L67.94 49.6221L67.9412 49.6154C67.948 49.58 67.9567 49.5456 67.9673 49.5122L67.9785 49.4791C68.1291 49.0621 68.5298 48.8766 69.0495 48.943C69.5073 49.0015 70.1056 49.2507 70.8673 49.7048L71.1817 49.9022C71.2938 49.9723 71.4144 50.0474 71.542 50.1265L71.9806 50.3974C72.3464 50.6223 72.7114 50.8441 73.0641 51.055L73.4151 51.2636C74.1569 51.7018 74.7476 52.0316 75.1288 52.2157L75.1554 52.2284L75.3706 52.2744L75.4215 52.2856C75.669 52.3405 75.9443 52.406 76.2406 52.4818C77.088 52.6986 77.9358 52.9559 78.7295 53.2533C80.2546 53.8249 81.3993 54.4737 82.0234 55.2274C82.8721 56.2378 86.8219 63.4374 92.5284 74.161L93.3494 75.7053L94.6358 74.1779C95.4477 73.2128 96.2707 72.2328 97.0933 71.2519L99.2368 68.6925L100.414 67.2832C100.493 67.1887 100.611 67.1362 100.733 67.1401L100.759 67.1418L121.797 69.1908C122.088 69.2192 122.25 69.5412 122.101 69.7926L122.072 69.8371C122.024 69.9102 121.932 70.0406 121.775 70.2516L121.701 70.352C121.318 70.8649 120.726 71.6313 119.88 72.7017L119.279 73.461C116.648 76.7692 112.479 81.8896 106.44 89.202C102.891 93.4976 99.624 96.2358 96.649 97.5426C94.0203 98.6973 91.6548 98.7152 89.6268 97.7341L89.5812 97.7117L89.5443 97.6986C87.5582 96.9737 85.5053 94.726 85.0147 92.7982L85.004 92.7541L76.3039 61.6326ZM63.4416 50.5158L63.4446 50.5442C63.4451 50.5365 63.4547 50.562 63.4739 50.602C63.5032 50.663 63.5461 50.7414 63.6015 50.8347L63.6229 50.8704C63.758 51.0941 63.9535 51.3871 64.1975 51.7313L64.3104 51.8895C64.754 52.5064 65.3156 53.2395 65.9146 53.9822L66.0716 54.1761C67.716 56.1975 69.2512 57.824 70.0586 58.3417C71.6289 59.3507 73.8738 60.2445 76.7158 60.9101C76.8492 60.9413 76.9566 61.0386 77.0014 61.1668L77.0091 61.1912L85.7724 92.5391L85.7762 92.5539C86.1806 94.248 88.098 96.3479 89.8682 96.9666C89.8838 96.9721 89.8991 96.9785 89.914 96.9859C91.7382 97.8917 93.8803 97.887 96.3282 96.8116C99.1459 95.5739 102.286 92.9537 105.721 88.8191L107.689 86.4348C112.73 80.3166 116.306 75.9167 118.654 72.9646L119.311 72.1348C119.971 71.2985 120.472 70.6539 120.834 70.1762L121.029 69.9179L100.892 67.9567L98.7342 70.5364L97.4332 72.0885C96.1312 73.6407 94.8312 75.1866 93.5787 76.6713C93.3965 76.8872 93.054 76.8506 92.9215 76.6011L91.8264 74.5406C86.2082 63.9841 82.2043 56.6836 81.4108 55.7389C80.897 55.1184 79.8541 54.5273 78.4496 54.0009C77.6857 53.7147 76.8645 53.4655 76.0429 53.2552C75.7552 53.1816 75.4881 53.1181 75.2487 53.065L75.0672 53.0256L74.9523 53.0019C74.9206 52.9957 74.8898 52.9856 74.8605 52.9719C74.4413 52.7762 73.7804 52.4077 72.9353 51.9072L72.6548 51.7402C72.228 51.485 71.7839 51.2144 71.3422 50.9416L70.8276 50.6221L70.45 50.3852C69.783 49.9877 69.2769 49.7768 68.9485 49.7349C68.7681 49.7118 68.7377 49.7259 68.7288 49.7505C68.6687 49.9169 68.8078 50.3181 69.0722 50.714L69.0946 50.7472L69.1186 50.7773C69.1659 50.8359 69.2157 50.8955 69.268 50.9559L69.3211 51.0166C69.6803 51.4233 70.1379 51.8574 70.6704 52.3065C71.1679 52.7261 71.7023 53.1354 72.2368 53.5171L72.3746 53.6148C72.4646 53.6783 72.551 53.7384 72.6332 53.7948L72.8153 53.9185L72.9458 54.0051C73.3159 54.2454 73.0799 54.8203 72.6478 54.7308C72.1345 54.6246 69.8801 52.8004 68.7928 51.6445C68.6726 51.5152 68.5614 51.3781 68.4613 51.237L68.4369 51.2021L68.3891 51.1404C68.288 51.0079 68.1973 50.8781 68.1175 50.7509L68.0989 50.7206L68.0858 50.7059C67.7878 50.3823 67.3636 50.195 66.8909 50.1456L66.8382 50.1407C66.6266 50.1233 66.4205 50.1357 66.2525 50.1718C66.2288 50.1769 66.2063 50.1824 66.1854 50.1881L66.1535 50.1975C66.204 50.3099 66.2942 50.4627 66.4281 50.6623L66.4882 50.7507C66.6861 51.0386 67.7438 52.4605 67.9985 52.8151C68.0693 52.9129 68.1457 53.0128 68.2277 53.1149C68.5595 53.5282 68.975 53.9683 69.4546 54.4236C69.9228 54.8679 70.4256 55.3022 70.9285 55.708C71.0605 55.8145 71.1854 55.9132 71.3013 56.0033L71.4726 56.1349L71.5953 56.227C71.7728 56.3576 71.8109 56.6075 71.6804 56.7851C71.5499 56.9627 71.3002 57.0008 71.1227 56.8703L71.0186 56.7923L70.9292 56.7242C70.7777 56.6082 70.6091 56.4758 70.4276 56.3295C69.9092 55.9112 69.3906 55.4633 68.9055 55.0027C68.4017 54.5245 67.9624 54.0593 67.6057 53.6149C67.5381 53.5308 67.4737 53.4476 67.4122 53.3649L67.276 53.1782L67.271 53.1749C67.2396 53.1525 67.211 53.1252 67.1865 53.0933L67.1723 53.0736C66.2831 51.76 65.1887 50.746 64.2924 50.3235C63.9343 50.1548 63.6609 50.1102 63.5314 50.1606C63.4615 50.1878 63.4202 50.2754 63.4416 50.5158Z" fill="#A0AEC0"/>
<path fill-rule="evenodd" clip-rule="evenodd" d="M93.0343 76.0813C93.2105 75.9489 93.4606 75.9846 93.5928 76.1609L93.6428 76.2289C93.6822 76.2828 93.7277 76.3461 93.7788 76.4184L93.8679 76.5453C93.9893 76.7194 94.1205 76.913 94.2597 77.1245C94.7559 77.8787 95.2519 78.7067 95.7151 79.5839C96.6245 81.3056 97.2947 83.0008 97.6253 84.5986C98.0032 86.425 97.9184 88.0461 97.2778 89.3981C97.1834 89.5973 96.9455 89.6822 96.7464 89.5878C96.5473 89.4933 96.4625 89.2553 96.5569 89.0561C97.1137 87.8808 97.1895 86.4306 96.844 84.7604C96.5307 83.2461 95.8868 81.6175 95.0097 79.9569C94.5592 79.1039 94.0761 78.2974 93.5932 77.5634L93.4825 77.3965C93.3738 77.2337 93.2708 77.0835 93.175 76.9469L93.0717 76.8011L92.9546 76.6401C92.8224 76.4638 92.858 76.2136 93.0343 76.0813Z" fill="#A0AEC0"/>
<path fill-rule="evenodd" clip-rule="evenodd" d="M159.83 67.2462C159.83 67.2462 150.947 57.4932 144.125 55.4043C141.771 54.6858 137.223 54.6991 132.117 55.0982L132.157 55.2845L135.88 55.1115C134.723 59.9148 129.989 65.3435 121.572 66.2084C113.167 67.0732 113.726 58.4778 114.869 57.7593L117.582 57.0674V57.0275C113.593 57.7593 110.255 58.5444 108.513 59.2096C102.729 61.4051 97.303 70.8919 97.303 70.8919L104.151 79.301C104.151 79.301 103.952 79.0748 103.872 84.8095C103.792 90.5442 108.806 94.802 108.806 94.802L105.827 118.606L152.423 118.286L146.811 81.5097L159.83 67.2462Z" fill="#A0AEC0"/>
<path fill-rule="evenodd" clip-rule="evenodd" d="M129.788 43.9566C129.996 43.9132 130.2 44.0403 130.255 44.243L130.26 44.2658L132.478 54.8965L135.862 54.7394C136.119 54.7275 136.318 54.9586 136.273 55.2085L136.268 55.2319C135.637 57.8455 134.038 60.4351 131.705 62.46C129.073 64.7441 125.644 66.2171 121.612 66.632C117.713 67.0333 115.259 65.4961 114.265 62.7346C113.525 60.6805 113.771 57.9942 114.66 57.4461C114.686 57.4303 114.713 57.4174 114.742 57.4077L114.771 57.3992L117.156 56.7908L116.839 53.1235C116.821 52.9117 116.971 52.7242 117.179 52.6941L117.202 52.6914C117.414 52.6731 117.601 52.8237 117.631 53.0314L117.634 53.0548L117.98 57.0597C117.996 57.2463 117.88 57.4177 117.704 57.4742L117.681 57.4809L115.05 58.152L115.043 58.159C114.997 58.2143 114.933 58.327 114.873 58.4871L114.86 58.5221C114.761 58.7969 114.687 59.1575 114.65 59.5617C114.564 60.4968 114.681 61.5365 115.015 62.4639C115.886 64.8799 117.995 66.2017 121.531 65.8379C125.4 65.4397 128.675 64.0329 131.182 61.857C133.219 60.0891 134.661 57.8726 135.337 55.6169L135.354 55.5621L132.175 55.7099C131.988 55.7186 131.821 55.5955 131.772 55.4164L131.766 55.3927L129.479 44.4289C129.434 44.2131 129.572 44.0017 129.788 43.9566Z" fill="#A0AEC0"/>
<path fill-rule="evenodd" clip-rule="evenodd" d="M131.088 30.3657C132.64 30.1913 134.05 30.2999 135.2 30.8137C136.719 31.4925 137.63 32.8253 137.754 34.8621C137.939 37.8125 136.607 39.5661 134.316 40.3108C133.251 40.6569 132.143 40.7397 131.181 40.677L131.09 40.6705C131.036 40.6662 130.995 40.6622 130.967 40.659C130.748 40.6335 130.591 40.4353 130.617 40.2163C130.642 40.0051 130.827 39.8518 131.036 39.864L131.115 39.8715C131.139 39.8737 131.169 39.876 131.205 39.8785L131.233 39.8804C132.103 39.937 133.116 39.8613 134.069 39.5515C136.029 38.9144 137.119 37.4802 136.958 34.9115C136.851 33.1689 136.121 32.0994 134.875 31.5426C133.879 31.0976 132.6 30.9991 131.177 31.159C130.959 31.1836 130.761 31.026 130.736 30.8069C130.712 30.5878 130.869 30.3903 131.088 30.3657Z" fill="#A0AEC0"/>
<path fill-rule="evenodd" clip-rule="evenodd" d="M115.052 19.9305C111.87 20.0926 109.483 21.1056 107.802 23.4136C105.795 26.1684 104.96 30.6552 105.441 37.2582L105.456 37.4587C105.634 39.805 106.564 43.4986 108.04 46.4519C110.219 50.8131 113.358 53.3852 117.547 53.342C121.945 53.2965 125.66 51.2262 128.28 47.6365C130.677 44.3526 131.998 39.9769 131.971 35.5899C131.917 26.9903 127.26 20.2411 121.271 20.1713L121.023 20.1665C120.727 20.1588 120.438 20.1437 119.936 20.1097L118.564 20.0122C117.026 19.9057 116.096 19.8774 115.052 19.9305ZM118.514 20.809L119.797 20.9004C120.512 20.9496 120.822 20.9634 121.26 20.9696C126.741 21.0335 131.121 27.3823 131.173 35.5949C131.199 39.816 129.929 44.0244 127.636 47.1656C125.159 50.5593 121.675 52.5009 117.538 52.5437C113.706 52.5833 110.81 50.2103 108.754 46.0949C107.345 43.2769 106.445 39.7388 106.258 37.4853L106.251 37.3981C105.752 30.857 106.55 26.4865 108.446 23.8839C109.951 21.8183 112.086 20.8978 115.001 20.7328L115.093 20.7278C116.097 20.6767 117.003 20.7044 118.514 20.809Z" fill="#A0AEC0"/>
<rect width="3.23157" height="5.70772" transform="matrix(0.94434 0.32897 -0.32863 0.944459 131.091 9.42664)" fill="#EDF2F7"/>
<path fill-rule="evenodd" clip-rule="evenodd" d="M134.431 11.4827C137.581 11.4827 140.135 8.92709 140.135 5.77461C140.135 2.62212 137.581 0.0665283 134.431 0.0665283C131.28 0.0665283 128.726 2.62212 128.726 5.77461C128.726 8.92709 131.28 11.4827 134.431 11.4827Z" fill="#A0AEC0"/>
<path fill-rule="evenodd" clip-rule="evenodd" d="M129.471 13.0262C124.404 11.4163 118.965 10.6712 114.178 12.5738C99.67 19.1335 99.6434 30.0839 105.734 35.0602C105.508 27.3031 107.396 23.5509 110.056 21.7813C112.968 26.4249 122.37 30.4432 130.973 30.5363C130.987 30.6162 131.013 30.696 131.026 30.7625C133.393 30.4698 137.104 30.6827 137.356 34.8739C137.715 40.6485 131.838 40.3292 131.093 40.2627C131 40.7151 129.79 44.8531 129.79 44.8531L131.093 50.7741L150.229 47.7936C151.385 47.767 152.183 46.6227 151.811 45.5317C149.51 38.6793 145.76 18.4283 129.471 13.0262Z" fill="#A0AEC0"/>
<path fill-rule="evenodd" clip-rule="evenodd" d="M118.772 43.5096L118.72 43.5125C118.679 43.515 118.632 43.518 118.578 43.5216L118.445 43.5312C118.33 43.5398 118.207 43.5499 118.077 43.5616C117.558 43.6084 117.039 43.6712 116.553 43.7523C115.916 43.8585 115.382 43.9885 114.977 44.1489C114.396 44.379 114.045 44.6791 114.045 45.1323C114.045 45.9272 115.198 46.6105 116.354 46.6258C117.748 46.6444 118.84 45.7527 119.184 43.9845C119.234 43.7297 119.031 43.4961 118.772 43.5096ZM118.267 44.3465L118.258 44.3738C117.912 45.3837 117.23 45.8392 116.364 45.8277C115.958 45.8223 115.545 45.705 115.23 45.5183L115.198 45.4994C114.985 45.3669 114.865 45.2279 114.846 45.1523L114.844 45.1444L114.85 45.1363C114.859 45.1256 114.872 45.1122 114.89 45.0968C114.966 45.0315 115.096 44.9606 115.27 44.8913C115.613 44.7556 116.098 44.6376 116.684 44.5399C117.149 44.4624 117.649 44.402 118.149 44.3568L118.267 44.3465Z" fill="#A0AEC0"/>
<path fill-rule="evenodd" clip-rule="evenodd" d="M112.869 30.2706C113.081 30.2816 113.246 30.4565 113.247 30.6664L113.247 30.6898L112.713 41.0076L114.929 40.7443C115.14 40.7192 115.332 40.8637 115.369 41.0703L115.372 41.0936C115.397 41.3047 115.253 41.4968 115.046 41.5336L115.023 41.537L112.337 41.8564C112.099 41.8846 111.892 41.6991 111.891 41.4631L111.891 41.4393L112.45 30.6485C112.461 30.4362 112.636 30.2713 112.846 30.27L112.869 30.2706Z" fill="#A0AEC0"/>
<path fill-rule="evenodd" clip-rule="evenodd" d="M107.067 31.1505C107.526 31.0708 108.004 31.1121 108.465 31.2276C108.642 31.2718 108.778 31.317 108.86 31.3496C109.065 31.431 109.165 31.6631 109.083 31.8679C109.005 32.0655 108.786 32.1656 108.587 32.0995L108.527 32.0774C108.517 32.0742 108.506 32.0704 108.494 32.0663C108.429 32.0446 108.354 32.0227 108.272 32.0021C107.909 31.9113 107.537 31.8791 107.203 31.9371C106.758 32.0145 106.425 32.2435 106.212 32.6805C106.116 32.8786 105.877 32.9609 105.679 32.8643C105.481 32.7677 105.398 32.5287 105.495 32.3306C105.826 31.6513 106.38 31.2698 107.067 31.1505Z" fill="#A0AEC0"/>
<path fill-rule="evenodd" clip-rule="evenodd" d="M117.323 30.2769C117.539 30.2363 117.748 30.379 117.788 30.5957C117.918 31.2897 118.442 31.6915 119.293 31.8699C119.79 31.974 120.328 31.9866 120.819 31.9445L120.896 31.9373L120.963 31.93C120.987 31.9272 121.002 31.9251 121.009 31.9242C121.227 31.8923 121.429 32.0432 121.461 32.2614C121.493 32.4795 121.342 32.6822 121.124 32.7141L121.066 32.7218C121.02 32.7273 120.96 32.7337 120.887 32.7399C120.325 32.7881 119.714 32.7738 119.13 32.6512C117.994 32.4133 117.203 31.8067 117.004 30.7428C116.963 30.5261 117.106 30.3176 117.323 30.2769Z" fill="#A0AEC0"/>
<path fill-rule="evenodd" clip-rule="evenodd" d="M119.766 35.9586C120.252 35.8829 120.551 35.2093 120.434 34.4541C120.316 33.699 119.827 33.1482 119.341 33.224C118.854 33.2998 118.555 33.9734 118.673 34.7285C118.791 35.4837 119.28 36.0344 119.766 35.9586Z" fill="#A0AEC0"/>
<path fill-rule="evenodd" clip-rule="evenodd" d="M109.871 37.7269C110.358 37.6512 110.657 36.9776 110.539 36.2224C110.421 35.4673 109.932 34.9165 109.446 34.9923C108.96 35.0681 108.661 35.7417 108.778 36.4968C108.896 37.252 109.385 37.8027 109.871 37.7269Z" fill="#A0AEC0"/>
<path fill-rule="evenodd" clip-rule="evenodd" d="M120.015 24.9461C116.669 25.4536 114.538 29.3699 115.187 33.658C115.836 37.9461 119.031 41.0548 122.377 40.5473C125.723 40.0398 127.854 36.1235 127.205 31.8354C126.556 27.5473 123.362 24.4387 120.015 24.9461ZM120.135 25.7355C122.99 25.3024 125.827 28.0628 126.416 31.9551C127.005 35.8474 125.113 39.325 122.257 39.7581C119.402 40.1912 116.565 37.4307 115.976 33.5385C115.387 29.6462 117.279 26.1685 120.135 25.7355Z" fill="#EDF2F7"/>
<path fill-rule="evenodd" clip-rule="evenodd" d="M104.657 27.6876C101.311 28.1951 99.1801 32.1114 99.8292 36.3995C100.478 40.6876 103.673 43.7962 107.019 43.2888C110.365 42.7813 112.496 38.865 111.847 34.5768C111.198 30.2887 108.004 27.1801 104.657 27.6876ZM104.777 28.4768C107.632 28.0437 110.469 30.8041 111.058 34.6964C111.647 38.5887 109.755 42.0664 106.899 42.4994C104.044 42.9325 101.207 40.1721 100.618 36.2798C100.029 32.3875 101.921 28.9098 104.777 28.4768Z" fill="#EDF2F7"/>
<path fill-rule="evenodd" clip-rule="evenodd" d="M115.36 32.4314C115.577 32.3937 115.784 32.5392 115.821 32.7564C115.858 32.9659 115.724 33.1655 115.519 33.2133L115.496 33.2179L111.281 33.9497C111.064 33.9874 110.857 33.8419 110.82 33.6247C110.783 33.4152 110.917 33.2156 111.122 33.1678L111.145 33.1632L115.36 32.4314Z" fill="#EDF2F7"/>
<path fill-rule="evenodd" clip-rule="evenodd" d="M126.797 30.0181L132.13 30.364C132.349 30.3783 132.516 30.5682 132.502 30.7882C132.488 31.0003 132.311 31.163 132.101 31.1615L132.078 31.1607L126.745 30.8147C126.526 30.8005 126.359 30.6106 126.373 30.3906C126.387 30.1784 126.564 30.0158 126.774 30.0172L126.797 30.0181Z" fill="#EDF2F7"/>
<path fill-rule="evenodd" clip-rule="evenodd" d="M200.947 118.02C201.167 118.02 201.346 118.199 201.346 118.419C201.346 118.632 201.179 118.806 200.97 118.818L200.947 118.819H1.30567C1.08535 118.819 0.906738 118.64 0.906738 118.419C0.906738 118.207 1.07282 118.033 1.28223 118.021L1.30567 118.02H200.947Z" fill="#A0AEC0"/>
</g>
</svg>
